<?xml version="1.0" standalone="no"?>
<!DOCTYPE svg PUBLIC "-//W3C//DTD SVG 20010904//EN"
 "http://www.w3.org/TR/2001/REC-SVG-20010904/DTD/svg10.dtd">
<svg version="1.0" xmlns="http://www.w3.org/2000/svg"
 width="64.000000pt" height="64.000000pt" viewBox="0 0 64.000000 64.000000"
 preserveAspectRatio="xMidYMid meet">

<g transform="translate(0.000000,64.000000) scale(0.100000,-0.100000)"
fill="#000000" stroke="none">
<path d="M285 448 c-15 -18 -32 -43 -38 -55 -6 -13 -13 -22 -16 -20 -70 37
-79 34 -88 -32 -7 -51 13 -57 23 -6 7 40 7 40 38 20 21 -14 23 -19 14 -63 -13
-71 18 -212 48 -212 17 0 18 -5 -6 63 -11 31 -20 76 -20 101 0 56 26 136 56
172 l24 29 24 -29 c75 -90 72 -261 -6 -350 l-33 -37 -50 15 c-27 9 -66 29 -87
46 -39 32 -78 102 -78 139 0 21 3 22 45 15 29 -4 45 -3 45 4 0 12 -61 32 -97
32 -34 0 -30 -55 10 -130 39 -75 92 -117 171 -135 71 -17 149 -1 209 43 50 35
107 136 107 188 0 32 -2 34 -35 34 -29 0 -35 4 -35 21 0 32 -22 99 -32 99 -5
0 -23 -7 -41 -16 -23 -12 -32 -13 -35 -5 -7 20 -66 94 -78 98 -6 2 -24 -11
-39 -29z m195 -140 c0 -20 -4 -40 -10 -43 -25 -16 -7 -26 35 -19 43 6 45 5 45
-17 0 -63 -92 -167 -161 -183 l-25 -5 30 61 c28 55 31 72 31 151 0 76 3 91 19
103 25 18 36 4 36 -48z"/>
</g>
</svg>
